<?xml version="1.0" standalone="no"?>
<!DOCTYPE svg PUBLIC "-//W3C//DTD SVG 20010904//EN"
 "http://www.w3.org/TR/2001/REC-SVG-20010904/DTD/svg10.dtd">
<svg version="1.0" xmlns="http://www.w3.org/2000/svg"
 width="200.000000pt" height="200.000000pt" viewBox="0 0 200.000000 200.000000"
 preserveAspectRatio="xMidYMid meet">
<metadata>
Created by potrace 1.16, written by Peter Selinger 2001-2019
</metadata>
<g transform="translate(0.000000,200.000000) scale(0.100000,-0.100000)"
fill="#4C388B" stroke="#4C388B">
<path d="M370 1852 c-53 -7 -89 -24 -105 -49 -23 -34 -16 -123 12 -161 11 -15
72 -63 136 -107 l116 -80 1 -42 c0 -23 5 -53 11 -67 18 -40 161 -145 204 -150
21 -3 39 -7 42 -10 3 -3 8 -34 10 -69 l5 -63 -308 -190 c-286 -176 -309 -192
-312 -220 -2 -19 3 -35 15 -45 20 -18 1534 -450 1573 -449 32 0 50 17 50 47 0
16 -17 40 -52 71 -99 88 -116 110 -127 159 -8 38 -6 63 6 115 15 61 15 69 0
91 -14 22 -35 29 -193 58 -106 20 -167 36 -153 39 l23 6 -29 22 c-16 13 -34
21 -40 18 -7 -2 -41 2 -76 10 -84 18 -109 18 -109 -1 0 -8 -8 -15 -17 -15 -27
1 -315 59 -321 65 -9 9 13 26 196 150 95 65 182 127 193 138 23 25 25 74 4
104 -8 12 -76 65 -151 118 l-135 96 -73 -3 c-52 -2 -78 1 -91 12 -9 8 -57 93
-105 190 -48 97 -95 182 -103 188 -20 17 -66 29 -97 24z m56 -60 c6 -4 52 -88
102 -188 107 -214 113 -220 219 -217 l73 2 135 -96 c109 -76 135 -100 133
-116 -2 -15 -63 -62 -198 -154 -107 -73 -201 -142 -208 -152 -16 -24 -6 -68
19 -81 10 -6 208 -46 441 -90 233 -44 433 -85 445 -90 20 -8 21 -13 12 -37 -6
-15 -11 -59 -12 -98 0 -91 21 -134 110 -215 37 -34 61 -60 53 -58 -8 3 -354
101 -768 218 -660 188 -751 216 -735 228 10 7 142 89 294 183 152 93 283 177
292 187 20 22 24 53 14 128 -9 71 -27 93 -84 101 -27 4 -58 22 -108 62 l-70
57 -5 59 -5 60 -124 86 c-68 47 -130 97 -137 110 -21 38 -17 85 8 103 23 17
85 21 104 8z"/>
</g>
</svg>
