<?xml version="1.0" standalone="no"?>
<!DOCTYPE svg PUBLIC "-//W3C//DTD SVG 20010904//EN"
 "http://www.w3.org/TR/2001/REC-SVG-20010904/DTD/svg10.dtd">
<svg version="1.0" xmlns="http://www.w3.org/2000/svg"
 width="200.000000pt" height="200.000000pt" viewBox="0 0 200.000000 200.000000"
 preserveAspectRatio="xMidYMid meet">
<metadata>
Created by potrace 1.16, written by Peter Selinger 2001-2019
</metadata>
<g transform="translate(0.000000,200.000000) scale(0.100000,-0.100000)"
fill="#4C388B" stroke="none">
<path d="M1286 1455 c-262 -173 -479 -315 -483 -315 -5 0 34 28 86 63 l95 62
-39 3 c-26 2 -41 -1 -46 -11 -5 -8 -38 -34 -74 -57 -54 -35 -65 -47 -63 -66 3
-22 -33 -48 -302 -227 l-305 -202 -3 -41 c-3 -35 1 -45 24 -63 52 -41 129 -21
215 55 49 43 53 45 66 28 7 -10 13 -29 13 -42 0 -28 -50 -82 -77 -82 -10 0
-33 -9 -50 -20 -38 -23 -43 -60 -16 -117 24 -52 114 -108 169 -106 43 1 43 1
37 -28 -7 -35 11 -59 44 -59 32 0 305 164 346 207 18 18 55 75 84 125 l53 92
0 126 c0 99 4 132 18 159 9 19 22 37 29 39 7 2 39 -39 72 -90 33 -51 69 -99
80 -105 59 -36 155 -33 213 8 73 52 86 149 39 296 -21 68 -25 96 -18 109 6 11
81 92 168 181 l157 163 16 69 c19 83 20 133 4 149 -36 36 -64 20 -552 -303z
m514 248 c0 -10 -6 -44 -14 -75 -12 -54 -22 -65 -172 -223 -87 -91 -165 -179
-172 -196 -11 -26 -9 -42 19 -136 40 -135 37 -182 -15 -230 -29 -27 -44 -33
-82 -33 -25 0 -54 5 -65 11 -11 6 -49 55 -84 110 -62 95 -66 99 -100 99 -43 0
-80 -34 -95 -89 -5 -20 -10 -88 -10 -151 l0 -115 -45 -79 c-70 -123 -85 -138
-226 -222 -159 -95 -149 -91 -149 -64 0 46 -18 61 -70 59 -38 -2 -57 3 -89 24
-47 31 -76 70 -68 91 3 8 25 21 48 27 104 32 146 160 72 219 -35 28 -64 20
-122 -32 -25 -22 -61 -47 -80 -55 -40 -17 -81 -10 -81 15 1 11 259 187 792
540 435 287 795 522 800 522 4 0 8 -8 8 -17z"/>
</g>
</svg>
