<?xml version="1.0" standalone="no"?>
<!DOCTYPE svg PUBLIC "-//W3C//DTD SVG 20010904//EN"
 "http://www.w3.org/TR/2001/REC-SVG-20010904/DTD/svg10.dtd">
<svg version="1.0" xmlns="http://www.w3.org/2000/svg"
 width="800.000000pt" height="706.000000pt" viewBox="0 0 800.000000 706.000000"
 preserveAspectRatio="xMidYMid meet">
<metadata>
Created by potrace 1.16, written by Peter Selinger 2001-2019
</metadata>
<g transform="translate(0.000000,706.000000) scale(0.100000,-0.100000)"
fill="#4C388B" stroke="#4C388B">
<path d="M7722 7033 c-66 -35 -145 -99 -501 -403 -1454 -1240 -1725 -1426
-2429 -1659 -177 -59 -305 -89 -587 -136 -285 -47 -328 -50 -670 -50 -270 1
-367 5 -531 23 -372 40 -825 107 -966 143 -192 48 -247 99 -331 305 -66 164
-183 311 -289 364 -105 52 -218 36 -282 -41 -36 -43 -140 -256 -351 -722 -91
-203 -246 -543 -344 -755 -218 -473 -251 -550 -307 -718 -54 -160 -86 -344
-114 -651 -24 -268 -26 -393 -5 -454 23 -67 75 -122 375 -400 151 -140 594
-571 985 -959 663 -658 770 -761 868 -833 138 -103 313 -113 487 -29 68 33
114 78 210 207 254 341 289 503 143 677 -108 130 -415 337 -545 368 -24 6
-103 14 -177 20 -202 14 -209 19 -408 285 -154 205 -175 253 -143 320 29 61
64 89 106 88 53 -2 153 -54 522 -271 781 -462 894 -517 1057 -516 61 1 102 9
175 33 137 45 180 83 386 341 193 242 973 1265 1050 1377 68 99 140 253 160
339 24 110 17 241 -19 317 -30 65 -50 87 -183 192 -50 40 -107 90 -128 111
-85 89 -165 255 -169 348 l-2 41 105 27 c57 15 330 75 605 133 729 154 810
178 938 275 89 67 140 127 365 425 108 143 376 496 596 785 496 651 562 740
597 815 53 110 34 189 -56 234 -75 37 -129 39 -193 4z m101 -139 c31 -12 22
-25 -763 -1054 -174 -228 -385 -507 -470 -620 -190 -253 -251 -316 -362 -369
-102 -48 -184 -69 -643 -166 -893 -188 -931 -199 -976 -271 -23 -38 -24 -70
-4 -162 45 -217 145 -372 340 -532 140 -114 148 -123 165 -174 31 -96 6 -221
-73 -360 -51 -91 -46 -85 -481 -656 -628 -825 -772 -1006 -848 -1063 -50 -37
-193 -80 -246 -73 -104 14 -235 82 -782 406 -495 293 -637 364 -759 377 -75 7
-122 -9 -179 -60 -93 -86 -123 -206 -82 -327 27 -82 71 -154 181 -300 103
-136 190 -228 252 -264 54 -32 159 -56 248 -56 85 0 173 -17 224 -42 71 -36
307 -201 369 -258 138 -128 121 -193 -138 -523 -83 -106 -108 -131 -152 -153
-113 -55 -221 -40 -339 48 -38 29 -405 386 -815 793 -410 408 -870 857 -1023
999 -152 141 -284 270 -292 286 -20 39 -19 120 5 384 33 364 57 494 124 679
48 133 64 169 294 669 115 249 302 659 417 911 115 253 218 473 229 490 17 25
30 33 59 35 77 7 144 -66 228 -244 28 -60 64 -137 80 -171 99 -207 261 -274
876 -363 468 -67 744 -90 1071 -90 266 0 433 15 727 65 284 48 380 70 550 127
754 252 1001 421 2634 1812 178 152 327 276 332 276 4 0 14 -3 22 -6z"/>
</g>
</svg>
