<svg xmlns="http://www.w3.org/2000/svg" version="1.0" preserveAspectRatio="xMidYMid meet" viewBox="91.43 137.6 817.07 727.01">
<metadata>
Created by potrace 1.16, written by Peter Selinger 2001-2019
</metadata>
<g transform="translate(0.000000,1000.000000) scale(0.100000,-0.100000)" fill="#4C388B" stroke="#4C388B">
<path d="M8455 8604 c-23 -8 -276 -190 -569 -409 -290 -217 -569 -421 -619 -452 -113 -70 -264 -139 -422 -191 -181 -61 -1052 -309 -1163 -332 -122 -25 -252 -35 -772 -60 -485 -24 -588 -33 -770 -66 -286 -52 -444 -104 -1001 -329 -357 -144 -787 -366 -870 -448 -50 -50 -59 -86 -59 -237 0 -102 -3 -130 -18 -151 -9 -14 -93 -94 -187 -178 -93 -84 -189 -174 -213 -199 -50 -55 -86 -126 -101 -202 -19 -94 -231 -2028 -231 -2104 1 -86 20 -138 114 -299 40 -69 66 -126 66 -143 0 -22 -86 -155 -330 -514 -181 -267 -343 -512 -360 -544 -59 -117 -31 -257 68 -333 67 -51 165 -68 243 -42 19 7 350 146 735 310 713 303 832 347 1054 393 162 32 238 42 505 61 281 20 390 36 457 67 125 57 174 137 218 355 64 317 62 518 -6 723 -35 105 -173 384 -369 745 -54 99 -100 196 -102 216 -6 39 3 75 78 313 l50 159 62 -7 c178 -18 262 -18 327 -1 36 9 508 145 1050 301 900 260 985 283 994 267 20 -37 74 -81 112 -93 69 -21 107 -2 287 137 540 421 650 517 818 713 152 178 241 315 537 835 203 357 262 453 313 509 35 38 176 159 314 270 373 299 385 312 385 424 0 80 -21 118 -167 298 -145 180 -175 211 -228 235 -49 23 -171 24 -230 3z m172 -169 c11 -8 80 -88 152 -179 92 -115 131 -171 131 -190 0 -21 -39 -57 -242 -221 -372 -301 -379 -307 -441 -382 -35 -44 -154 -240 -313 -519 -318 -558 -400 -680 -602 -897 -121 -131 -140 -147 -512 -441 l-325 -256 -34 41 c-38 46 -83 69 -134 69 -18 0 -501 -135 -1072 -301 l-1040 -300 -85 6 c-257 18 -262 18 -305 -7 -58 -34 -80 -74 -136 -247 -79 -245 -92 -305 -86 -384 6 -66 14 -84 154 -346 339 -634 365 -702 366 -926 1 -203 -52 -488 -100 -546 -57 -67 -107 -78 -513 -109 -276 -21 -423 -43 -607 -89 -187 -48 -252 -73 -928 -361 -792 -338 -749 -320 -783 -320 -43 0 -82 43 -82 90 0 32 44 102 341 540 188 277 350 522 360 544 25 56 25 148 -2 206 -11 24 -50 96 -86 159 -56 96 -68 123 -71 170 -5 70 213 2026 234 2098 19 67 39 90 264 293 103 93 195 181 204 195 37 57 47 107 47 237 l-1 127 33 25 c17 13 142 83 277 154 198 105 308 156 570 260 550 220 665 256 962 307 144 24 488 48 1081 75 220 10 386 31 521 66 200 52 1044 300 1152 339 143 52 334 147 448 224 41 27 281 205 533 394 573 430 555 417 607 417 23 0 51 -7 63 -15z"/>
</g>
</svg>