<?xml version="1.0" encoding="UTF-8"?>
<svg width="812px" height="660px" viewBox="0 0 812 660" version="1.1" xmlns="http://www.w3.org/2000/svg" xmlns:xlink="http://www.w3.org/1999/xlink">
    <title>Indianapolis_estàtic</title>
    <defs>
        <rect id="path-1" x="0" y="0" width="812" height="660"></rect>
    </defs>
    <g id="Circuits-📍" stroke="#4C388B" stroke-width="1" fill="none" fill-rule="evenodd">
        <g id="Indianapolis_estàtic">
            <mask id="mask-2" fill="white">
                <use xlink:href="#path-1"></use>
            </mask>
            <g id="Mask"></g>
            <path d="M218.370564,469.082987 C216.681851,479.552267 218.634387,485.701832 224.228171,487.531683 C232.618847,490.276458 269.741745,496.244141 277.445169,496.244141 C285.148593,496.244141 584.55406,491.858287 590.950578,489.694985 C597.347095,487.531683 636.0088,467.667884 640.799851,426.873794 C645.590902,386.079703 622.317267,345.238764 624.575248,336.723346 C626.833229,328.207927 632.431708,324.159659 649.024347,318.262249 C665.616987,312.364839 666.649744,320.00667 666.649744,325.760778 C666.649744,331.514886 666.128671,344.314194 673.101654,344.314194 C677.75031,344.314194 680.901156,341.783911 682.554192,336.723346 C684.07829,252.680666 684.07829,207.854383 682.554192,202.244495 C680.268045,193.829663 675.700445,157.286392 645.018192,130.002606 C629.261146,116.015548 587.821326,117.423762 572.009825,110.758862 C556.198325,104.093963 541.679648,121.324595 541.679648,125.6636 C541.679648,130.002606 545.357199,198.909978 541.679648,202.244495 C538.002096,205.579011 525.022226,205.379216 521.647929,209.173951 C518.273633,212.968686 511.940958,215.430992 511.940958,240.03752 C511.940958,264.644048 516.774258,289.389949 503.563426,296.067045 C490.352594,302.744141 488.051425,302.744141 479.163148,302.744141 C470.274871,302.744141 292.539373,300.554453 285.594556,302.744141 C278.649739,304.933828 268.81602,314.79821 268.81602,325.760778 C268.81602,336.723346 282.72631,361.276136 282.72631,367.746751 C282.72631,374.217367 284.89322,410.312821 268.81602,415.39038 C252.738819,420.467939 248.853778,412.298374 247.193857,409.747882 C245.533935,407.19739 212.496997,325.760778 206.836553,325.760778 C201.176109,325.760778 151.14094,322.14517 145.531195,325.760778 C139.92145,329.376386 128.697266,338.090222 128.697266,354.655329 C128.697266,371.220436 146.263513,412.025549 148.958068,415.39038 C151.652624,418.75521 162.735039,440.98624 190.357517,432.972377 C208.772502,427.629801 218.110185,439.666671 218.370564,469.082987 Z" id="Path-3" stroke="#4C388B" stroke-width="13" mask="url(#mask-2)"></path>
        </g>
    </g>
</svg>