<svg xmlns="http://www.w3.org/2000/svg" version="1.0" preserveAspectRatio="xMidYMid meet" viewBox="27.5 44.71 417.45 265.04">
<metadata>
Created by potrace 1.16, written by Peter Selinger 2001-2019
</metadata>
<g  transform="translate(0.000000,360.000000) scale(0.100000,-0.100000)" fill="#4C388B" stroke="#4C388B">
<path  d="M3730 3120 c-129 -16 -409 -49 -622 -73 -431 -50 -437 -51 -459 -126 -10 -33 -8 -50 12 -116 l23 -78 -59 -111 c-284 -542 -498 -910 -561 -965 -56 -50 -94 -64 -389 -151 -664 -194 -1283 -384 -1327 -406 -42 -22 -68 -62 -68 -106 0 -86 47 -139 136 -153 24 -3 44 -10 44 -15 0 -4 -15 -44 -33 -87 -45 -104 -51 -130 -36 -165 24 -58 -9 -56 914 -59 814 -3 852 -3 888 15 64 32 73 62 59 218 -12 144 -6 181 44 259 73 116 279 188 564 197 177 5 257 -5 408 -50 179 -52 287 -26 357 86 28 45 30 58 33 155 2 58 7 110 11 114 4 4 48 -4 97 -19 61 -18 115 -27 172 -28 82 -1 84 0 112 30 48 54 52 208 9 301 -24 50 -102 114 -499 413 -313 236 -400 309 -400 336 0 38 51 64 126 64 71 0 121 -19 449 -170 110 -51 216 -96 235 -101 74 -18 288 41 350 97 21 19 57 71 80 116 63 120 61 155 -18 312 -98 192 -150 250 -255 281 -67 20 -120 18 -397 -15z m383 -106 c39 -13 53 -26 87 -77 23 -34 62 -104 87 -155 42 -87 45 -96 35 -130 -6 -20 -28 -63 -47 -94 -36 -57 -38 -58 -118 -82 -153 -46 -129 -51 -384 67 -125 57 -270 121 -322 142 -88 35 -100 37 -176 33 -68 -4 -91 -9 -136 -35 -88 -49 -122 -137 -83 -218 17 -37 166 -159 499 -410 357 -269 393 -299 404 -342 6 -21 11 -62 11 -92 l0 -54 -57 7 c-32 4 -96 18 -143 32 -174 53 -215 20 -227 -181 -5 -103 -9 -121 -30 -145 -45 -54 -77 -56 -220 -16 -71 20 -166 41 -213 47 -128 17 -361 6 -490 -24 -254 -60 -377 -148 -441 -316 -19 -51 -21 -69 -15 -198 5 -129 5 -142 -11 -147 -15 -4 -1064 -2 -1490 3 l-122 1 30 72 c17 39 33 95 36 124 5 49 3 55 -24 82 -19 20 -44 32 -74 37 -66 10 -79 15 -79 30 0 20 349 130 1298 409 445 131 435 124 609 411 162 268 478 858 489 912 4 18 -2 60 -15 104 -11 40 -20 74 -18 75 1 1 202 25 447 54 245 28 513 60 595 70 193 23 251 24 308 4z"/>
</g>
</svg>