<svg xmlns="http://www.w3.org/2000/svg" version="1.0" preserveAspectRatio="xMidYMid meet" viewBox="29.78 39.72 800.44 408.98">
<metadata>
Created by potrace 1.16, written by Peter Selinger 2001-2019
</metadata>
<g transform="translate(0.000000,478.000000) scale(0.100000,-0.100000)" fill="#4C388B" stroke="#4C388B">
<path d="M1140 4340 c-521 -91 -677 -137 -770 -230 -51 -51 -75 -128 -65 -209 10 -81 60 -227 165 -471 121 -283 181 -435 219 -557 l31 -100 47 -21 c27 -11 58 -23 70 -27 27 -7 24 3 58 -235 64 -445 211 -1229 252 -1343 33 -94 115 -256 166 -332 59 -87 187 -216 273 -275 136 -94 298 -157 501 -196 65 -12 167 -18 384 -21 l297 -5 108 27 c60 15 166 45 235 66 70 22 129 39 133 39 3 0 6 -11 6 -24 0 -38 31 -67 90 -83 48 -14 245 -17 1490 -23 789 -4 1572 -11 1740 -15 l305 -7 315 41 c457 58 628 98 795 184 154 79 249 206 296 396 37 146 12 241 -90 353 -58 63 -117 93 -213 108 -35 5 -628 18 -1318 29 -1343 22 -1943 37 -2027 51 -45 7 -60 16 -106 63 -107 110 -244 147 -457 124 l-75 -9 -55 48 c-88 75 -984 928 -1229 1169 -387 382 -466 480 -852 1060 -141 212 -263 386 -287 407 -77 70 -121 72 -432 18z m355 -110 c14 -13 148 -208 299 -434 151 -226 323 -472 382 -546 60 -74 203 -231 319 -349 230 -234 1290 -1245 1385 -1322 81 -64 116 -75 194 -58 84 19 190 17 255 -5 41 -14 68 -34 116 -83 115 -118 -20 -109 2195 -143 701 -11 1301 -24 1333 -30 65 -10 101 -33 151 -93 62 -76 68 -117 36 -235 -49 -176 -138 -278 -298 -341 -132 -52 -302 -84 -714 -135 l-283 -36 -610 10 c-335 5 -1031 10 -1546 10 -515 0 -1024 3 -1132 7 l-197 6 -10 38 c-6 20 -19 48 -29 61 -28 34 -99 29 -241 -16 -63 -20 -166 -51 -229 -68 l-115 -30 -290 5 c-205 4 -316 10 -376 21 -373 70 -612 248 -765 573 -61 126 -84 202 -120 377 -67 338 -178 984 -209 1221 -19 142 -28 158 -116 201 l-64 32 -31 98 c-37 115 -80 222 -215 539 -54 126 -107 262 -119 300 -30 95 -31 176 -5 212 49 68 202 114 649 193 306 54 361 57 400 20z"/>
</g>
</svg>