<?xml version="1.0" encoding="utf-8"?>
<!-- Generator: Adobe Illustrator 13.0.0, SVG Export Plug-In . SVG Version: 6.00 Build 14948)  -->
<!DOCTYPE svg PUBLIC "-//W3C//DTD SVG 1.1//EN" "http://www.w3.org/Graphics/SVG/1.1/DTD/svg11.dtd">
<svg version="1.1" id="Layer_1" xmlns="http://www.w3.org/2000/svg" xmlns:xlink="http://www.w3.org/1999/xlink" x="0px" y="0px"
	 width="520px" height="468px" viewBox="0 0 520 468" enable-background="new 0 0 520 468" xml:space="preserve">
<rect x="-0.167" y="-0.167" fill="none" width="519.333" height="468"/>
<path fill="none" stroke="#4C388B" stroke-width="8" d="M58.054,150.472c28.676,9.826,69.805,35.011,69.805,35.011l99.21,61.885
	l209.156,108.793c0,0,21.955,12.7,26.005,16.814c4.051,4.115,17.724,22.09,2.563,43.599c-15.159,21.511-38.558,4.32-38.558,4.32
	s-97.983-81.963-109.688-93.662c-11.703-11.697-24.407-10.042-36.915-9.48c-12.505,0.563-20.88-7.714-20.88-7.714
	s-8.696-8.055-22.561-21.834c-13.866-13.78-31.086-12.094-31.086-12.094s-18.908,1.662-22.209,19.956s14.875,26.931,14.875,26.931
	s88.46,30.061,111.127,37.252s24.07,18.158,21.171,40.474c-2.898,22.313,13.935,29.015,13.935,29.015s72.464,18.717,101.977,22.351
	c29.51,3.634,39.064-14.941,39.064-14.941s1.24-0.622,19.154-40.526c17.914-39.902-18.238-55.167-18.238-55.167
	s-50.551-19.836-65.13-28.104c-14.577-8.271-13.939-32.12-13.939-32.12s0.659-8.339,3.714-25.267
	c3.055-16.93-8.491-23.242-8.491-23.242s-63.041-61.561-75.688-74.275c-12.647-12.714-24.305-7.486-24.305-7.486
	s3.098-3.106-15.377,7.092c-18.475,10.199-28.441-1.749-28.441-1.749s-78.228-61.765-99.192-76.825
	c-20.964-15.061-34.217,3.693-34.217,3.693s0,0-12.011,18.131c-12.013,18.132-30.467,6.344-30.467,6.344
	S51.943,96.647,48.528,97.018s-25.072-0.895-27.87,16.961c0,0-3.895,15.719,12.598,24.511
	C49.749,147.282,58.054,150.472,58.054,150.472z"/>
</svg>
