<?xml version="1.0" standalone="no"?>
<!DOCTYPE svg PUBLIC "-//W3C//DTD SVG 20010904//EN"
 "http://www.w3.org/TR/2001/REC-SVG-20010904/DTD/svg10.dtd">
<svg version="1.0" xmlns="http://www.w3.org/2000/svg"
 width="300.000000pt" height="236.000000pt" viewBox="0 0 300.000000 236.000000"
 preserveAspectRatio="xMidYMid meet">
<metadata>
Created by potrace 1.16, written by Peter Selinger 2001-2019
</metadata>
<g transform="translate(0.000000,236.000000) scale(0.100000,-0.100000)"
fill="#4C388B" stroke="#4C388B">
<path d="M1094 2325 c-27 -19 -61 -35 -75 -35 -15 0 -37 -9 -50 -19 l-24 -19
29 -60 c50 -104 27 -130 -192 -212 -18 -7 -61 -43 -95 -79 -96 -103 -174 -142
-324 -162 -135 -17 -137 -19 -103 -119 16 -46 21 -91 22 -193 3 -150 -2 -165
-72 -232 -55 -52 -70 -84 -70 -142 0 -58 37 -166 78 -231 17 -26 34 -64 37
-84 6 -30 14 -41 43 -55 29 -15 38 -27 51 -73 16 -52 19 -56 61 -68 57 -17 77
-26 120 -58 29 -21 44 -25 85 -22 38 2 50 -1 52 -12 4 -20 -121 -25 -227 -9
l-75 11 -77 -41 c-84 -46 -97 -66 -75 -110 14 -28 13 -31 -32 -87 -61 -76
-100 -115 -142 -139 -23 -14 -35 -29 -37 -48 -3 -25 -1 -27 33 -27 20 0 48 6
63 14 15 8 53 17 84 21 65 8 74 20 62 80 -6 33 -3 40 32 76 36 38 42 40 80 34
29 -4 56 0 90 13 27 11 103 39 169 62 66 23 181 71 255 106 207 97 336 124
715 149 360 24 457 43 519 100 41 38 33 68 -41 146 -63 67 -26 102 52 49 24
-17 63 -37 86 -45 92 -33 236 -5 319 61 39 31 50 35 82 30 53 -9 84 10 117 69
40 70 84 107 119 99 15 -4 35 -11 44 -15 26 -14 75 -11 91 6 28 28 30 71 6
115 l-23 40 22 44 c12 24 22 62 22 84 0 35 -9 52 -58 114 -107 134 -170 150
-234 57 -22 -30 -34 -39 -57 -39 -44 0 -61 10 -61 35 0 15 -12 32 -32 47 -30
21 -44 23 -153 23 -114 0 -165 11 -165 34 0 4 -28 39 -62 76 -44 48 -80 76
-123 96 -33 16 -65 29 -72 29 -38 0 -133 122 -133 172 0 16 14 54 30 85 35 65
39 117 11 133 -11 5 -44 10 -73 10 -29 0 -96 7 -148 14 -98 15 -112 13 -144
-23 -24 -27 -36 -26 -97 4 -53 27 -90 34 -125 22 -19 -7 -23 -2 -33 37 -13 52
-59 96 -100 96 -15 0 -49 -15 -77 -35z m109 -33 c9 -10 19 -37 23 -61 9 -54
37 -71 89 -52 31 11 39 9 94 -19 76 -38 107 -38 146 0 28 27 33 28 70 20 22
-5 84 -13 138 -16 67 -5 97 -11 97 -19 0 -7 -14 -39 -31 -71 -26 -50 -30 -66
-25 -107 10 -90 86 -170 209 -221 47 -20 81 -43 110 -74 23 -25 63 -67 88 -94
l46 -48 127 0 c124 0 169 -13 81 -23 -69 -7 -109 -53 -67 -76 10 -5 80 -9 156
-9 149 1 149 1 208 76 22 27 38 28 72 1 30 -23 109 -125 119 -153 5 -12 -2
-35 -18 -63 -31 -56 -31 -83 -3 -133 18 -31 20 -42 11 -51 -10 -10 -24 -9 -67
4 -48 16 -59 16 -88 4 -39 -16 -89 -71 -118 -126 -19 -39 -20 -39 -78 -38 -55
2 -62 -1 -99 -34 -53 -48 -101 -64 -198 -64 -78 0 -83 1 -146 43 -75 48 -109
53 -144 17 -40 -39 -33 -75 25 -141 28 -31 50 -61 50 -65 0 -17 -80 -48 -161
-63 -46 -8 -136 -18 -199 -21 -446 -23 -667 -63 -841 -151 -38 -19 -94 -45
-124 -58 -46 -21 -53 -22 -43 -7 14 23 3 83 -20 110 -15 18 -21 19 -64 9 -45
-11 -50 -10 -89 18 -23 16 -62 36 -87 44 -43 14 -47 18 -65 73 -16 48 -25 61
-48 69 -20 7 -31 20 -38 45 -5 19 -24 56 -40 82 -40 62 -71 153 -71 208 0 38
6 50 54 102 65 71 74 86 86 151 12 64 -4 286 -24 334 l-15 35 47 5 c167 20
278 71 374 171 57 60 80 77 131 95 66 24 148 69 185 103 28 26 29 83 2 137
-25 49 -25 50 4 50 13 0 46 15 72 34 56 40 74 43 97 18z m-663 -1908 c47 -1
99 -2 115 -3 21 -1 -12 -17 -115 -55 -125 -46 -153 -53 -205 -50 -55 2 -61 5
-71 31 -12 27 -10 28 45 60 49 29 62 32 101 26 25 -4 83 -8 130 -9z"/>
</g>
</svg>
