<svg xmlns="http://www.w3.org/2000/svg" xmlns:xlink="http://www.w3.org/1999/xlink" version="1.1" viewBox="-0.5 -0.5 813 661">
    <title>Algarve_estàtic</title>
    <g id="Circuits-📍" stroke="" stroke-width="0" fill="none" fill-rule="evenodd">
        <g id="Algarve_estàtic">
            <path d="M734.365835,281.476496 C730.91561,260.166734 719.959681,240.28014 703.321362,226.074891 L633.92689,165.801269 C617.288571,151.393924 593.34567,150.378724 575.490235,163.163637 L573.8671,164.178837 C565.344458,170.266261 560.272042,179.805367 559.866022,190.356839 C559.460002,200.9102 563.721323,210.651401 571.837944,217.550042 L629.869524,266.864222 C634.33291,270.720095 634.1299,275.793263 632.506765,279.446095 C630.883629,282.896832 627.028328,286.346624 621.143872,285.331424 L545.256858,271.126175 C532.27083,268.691583 521.719033,258.949438 518.269752,245.961484 L494.935881,156.670132 C492.094685,145.508595 480.529727,138.811107 469.369844,141.652723 L449.68732,146.725891 C434.87609,150.581764 422.296082,160.526005 415.193566,173.919094 L376.235481,246.976685 C369.945005,258.949438 357.974027,266.661182 344.378968,267.675438 L182.866128,278.43184 C172.112265,279.243055 163.386613,285.940544 159.937332,296.086881 C156.488051,306.234162 159.329246,316.989619 167.241914,324.093188 L203.358803,356.359559 C213.505525,365.288599 227.910734,367.724136 240.491687,362.447927 L328.958709,325.107444 C334.842221,322.671908 341.335707,321.657652 347.828249,322.265827 L454.96369,333.022229 C459.631031,333.427364 460.239117,337.283237 460.239117,338.501477 C460.239117,339.718773 460.239117,343.574646 455.57272,344.791942 L186.316353,408.310427 C170.895149,411.964204 154.661906,405.470699 146.140208,391.872682 L122.196363,353.924967 C119.559122,349.663014 114.689715,347.227478 109.413345,348.038694 C104.340928,348.647814 100.282617,352.300646 98.8624918,357.170775 L78.3688718,425.966413 C75.5286207,435.504574 77.1517562,445.650911 82.8332026,453.768735 L120.979247,507.953045 C127.066714,516.679045 137.820577,520.737958 148.372374,518.302421 L661.522082,394.105178 C661.928102,393.903082 662.536188,393.903082 662.943152,393.700042 C686.277023,387.610729 706.364623,373.40548 719.756671,353.314902 C733.350785,332.819189 738.626212,308.060578 734.771855,283.708048 L734.365835,281.476496 Z" id="Algarve_Part_dinàmic-Copy" stroke="#4C388B" stroke-width="13"/>
            <rect id="Rectangle-Copy" x="0" y="0" width="812" height="660"/>
        </g>
    </g>
</svg>