<?xml version="1.0" standalone="no"?>
<!DOCTYPE svg PUBLIC "-//W3C//DTD SVG 20010904//EN"
 "http://www.w3.org/TR/2001/REC-SVG-20010904/DTD/svg10.dtd">
<svg version="1.0" xmlns="http://www.w3.org/2000/svg"
 width="2400.000000pt" height="1968.000000pt" viewBox="0 0 2400.000000 1968.000000"
 preserveAspectRatio="xMidYMid meet">
<metadata>
Created by potrace 1.16, written by Peter Selinger 2001-2019
</metadata>
<g transform="translate(0.000000,1968.000000) scale(0.100000,-0.100000)"
fill="#4C388B" stroke="#4C388B">
<path d="M11005 19646 c-245 -64 -655 -222 -1730 -668 -1182 -490 -1722 -708
-2379 -958 -375 -142 -453 -170 -1311 -467 -864 -299 -1040 -358 -1365 -459
-151 -47 -324 -104 -385 -126 -1421 -518 -2314 -1514 -2580 -2877 -70 -361
-111 -892 -102 -1329 8 -389 44 -632 136 -910 124 -377 296 -663 676 -1122 75
-91 161 -201 190 -245 127 -190 170 -335 130 -433 -52 -123 -128 -120 -463 19
-231 96 -417 158 -568 190 -144 31 -441 34 -543 6 -208 -57 -361 -163 -493
-341 -74 -99 -162 -277 -189 -381 -33 -123 -30 -310 5 -428 79 -266 266 -470
553 -604 134 -62 219 -88 383 -117 296 -52 498 -58 906 -26 712 56 3112 260
4124 350 729 65 1615 139 2340 195 322 25 628 50 680 55 409 43 3793 310 5260
415 701 50 1498 112 3280 256 1522 122 1596 127 1890 135 412 12 674 -25 790
-111 48 -36 88 -98 96 -152 12 -82 -46 -323 -103 -425 -72 -129 -229 -185
-838 -297 -288 -53 -2144 -385 -3110 -557 -1142 -203 -1563 -280 -1855 -339
-372 -77 -740 -145 -1613 -300 -416 -74 -925 -166 -1130 -204 -379 -71 -1538
-280 -3057 -551 -4445 -794 -5247 -949 -5688 -1095 -232 -77 -307 -122 -425
-254 -125 -139 -193 -310 -204 -507 -16 -300 108 -626 373 -976 100 -133 406
-438 554 -552 453 -351 953 -585 1445 -675 224 -42 402 -49 700 -31 596 36
845 126 2140 772 530 265 637 307 836 333 132 17 332 -50 560 -185 316 -189
597 -413 1949 -1550 1503 -1263 2012 -1681 2335 -1912 83 -59 224 -136 289
-157 77 -26 225 -51 295 -51 283 0 676 329 1024 860 334 511 592 1130 696
1671 47 246 65 457 65 784 1 340 -8 432 -64 651 -35 137 -74 236 -151 384
-177 342 -487 653 -1004 1007 -599 410 -716 496 -833 607 l-74 71 28 11 c84
34 330 73 1414 223 1174 163 1476 201 2015 255 483 49 627 60 3230 256 1315
99 2161 165 2300 181 529 57 732 188 926 592 26 56 88 206 137 332 124 319
187 458 314 691 60 111 126 242 146 290 37 89 37 90 40 255 3 156 2 170 -22
243 -96 286 -287 538 -1171 1546 -1166 1330 -1992 2271 -2194 2500 -508 573
-775 854 -916 962 -282 214 -790 408 -1171 447 -83 9 -145 7 -335 -9 -309 -26
-390 -43 -585 -119 -400 -156 -802 -444 -1109 -795 -339 -389 -643 -601 -1055
-736 -509 -167 -1043 -135 -1518 91 -333 158 -608 401 -817 722 -144 221 -219
418 -350 917 -145 552 -271 1147 -489 2315 -224 1200 -278 1505 -304 1725 -33
274 -332 657 -570 730 -102 32 -227 27 -387 -14z m316 -459 c117 -97 193 -216
203 -319 20 -191 87 -574 291 -1671 215 -1154 323 -1671 471 -2262 129 -513
203 -745 304 -950 286 -582 785 -1001 1435 -1205 272 -86 471 -114 790 -114
333 0 552 34 841 129 479 159 839 411 1216 851 278 326 732 618 1069 689 80
17 391 45 500 45 219 0 587 -123 869 -290 212 -125 368 -291 1625 -1725 236
-269 733 -836 1105 -1260 372 -423 734 -837 806 -920 510 -590 695 -849 711
-1001 8 -76 -14 -134 -165 -439 -151 -304 -226 -477 -337 -775 -130 -349 -178
-433 -278 -490 -114 -65 -120 -66 -2637 -255 -2197 -166 -2448 -185 -2750
-210 -531 -46 -1029 -99 -1535 -166 -452 -59 -1883 -259 -2031 -284 -370 -62
-595 -140 -721 -250 -68 -60 -101 -128 -109 -226 -12 -135 37 -237 188 -395
156 -163 346 -310 783 -609 423 -289 612 -438 783 -619 223 -236 341 -484 383
-806 33 -253 -3 -789 -77 -1147 -141 -685 -545 -1505 -934 -1894 -117 -116
-218 -179 -290 -179 -60 0 -200 30 -243 51 -162 83 -766 572 -2242 1813 -346
291 -711 598 -810 681 -1058 890 -1466 1169 -1872 1283 -91 25 -111 27 -278
26 -161 0 -190 -3 -275 -26 -188 -51 -313 -107 -865 -383 -1276 -641 -1440
-695 -2105 -698 -341 -2 -591 43 -915 164 -502 187 -1000 549 -1268 921 -82
113 -179 305 -208 413 -45 162 -25 325 55 449 45 69 135 152 193 177 220 96
1405 322 5668 1084 1713 306 2572 461 3110 560 281 52 753 137 1050 190 859
152 1173 210 1595 295 448 90 736 143 1820 335 3304 587 3596 643 3913 756
175 62 260 112 357 209 98 98 142 177 204 367 113 352 82 589 -103 773 -199
197 -531 295 -1081 320 -282 12 -544 0 -1285 -60 -346 -28 -907 -73 -1245
-100 -1262 -102 -2041 -162 -2780 -215 -1261 -91 -4661 -357 -5095 -400 -137
-13 -401 -36 -585 -50 -890 -68 -1554 -123 -2535 -210 -838 -74 -1482 -129
-2495 -215 -2007 -169 -2027 -170 -2230 -151 -281 28 -448 75 -643 184 -234
131 -269 321 -111 602 201 359 400 380 1039 112 99 -42 218 -87 265 -100 298
-87 595 -39 759 121 124 122 166 296 126 528 -44 251 -167 482 -413 776 -443
531 -616 867 -688 1339 -10 68 -18 204 -21 389 -5 290 7 529 43 885 74 719
304 1320 690 1805 91 114 346 368 464 462 375 298 798 517 1345 695 733 239
960 316 1660 558 833 288 928 323 1340 480 631 241 1186 464 2270 915 1330
553 1683 687 1811 689 34 1 49 -7 105 -52z"/>
</g>
</svg>
