<svg xmlns="http://www.w3.org/2000/svg" xmlns:xlink="http://www.w3.org/1999/xlink" version="1.1" id="Layer_1" x="0px" y="0px" enable-background="new 0 0 520 468" xml:space="preserve" viewBox="10.58 23.66 503.9 398.71">
<rect x="-0.167" y="-0.167" fill="none" width="519.333" height="468"/>
<path fill="none" stroke="#4C388B" stroke-width="8" d="M14.583,414.524c0.886,8.854,10.803-0.354,10.803-0.354l48.705-52.601  l38.078-45.518c0,0,11.689-10.626,12.929,3.365c1.948,9.563,11.866,4.073,11.866,4.073s28.337-14.523,42.329-21.076  c13.991-5.49,44.276-29.754,51.007-38.786c6.729-9.033,20.19-13.461,20.19-13.461c19.836-4.25,44.453,0,60.394,1.596  c15.94,1.595,38.021,18.772,38.021,18.772c4.84,4.781,46.757,39.672,52.424,42.978c5.667,4.725,31.171,15.114,59.979,19.364  c28.811,4.251,36.368-10.862,36.368-10.862s-0.474,1.889,10.39-26.448c10.862-28.338-18.419-27.864-18.419-27.864l-38.257-7.084  c0,0-17.474-0.474-12.752-28.337c4.724-27.865-25.976-25.503-25.976-25.503s-38.254,0.472-73.204-1.417  c-32.292-5.49-38.847-35.067-38.847-35.067s-8.323-24.264,12.871-34.831c28.81-12.752,78.871-45.812,91.15-56.675  c12.278-10.862,22.197-3.778,22.197-3.778l22.671,19.364c0,0,12.277,7.556,20.307-1.417c8.028-8.974-3.777-20.781-3.777-20.781  s-45.341-32.115-57.618-40.616c-12.279-8.501-21.727-0.473-21.727-0.473s-4.724,4.723-9.445,8.029  c-4.723,3.306-13.695,8.973-24.086,0.472s-21.727,0.945-21.727,0.945s-108.389,80.17-138.32,96.642  c-29.754,13.991-65.353,66.415-65.353,66.415s-10.272,15.408-21.784,20.722c-27.274,11.512-30.108,40.912-30.108,40.912  s-1.593,3.188-24.972,39.849c-13.609,19.185-21.45,38.634-25.946,53.991L14.583,414.524z"/>
</svg>