<?xml version="1.0" encoding="UTF-8"?>
<svg width="812px" height="660px" viewBox="0 0 812 660" version="1.1" xmlns="http://www.w3.org/2000/svg" xmlns:xlink="http://www.w3.org/1999/xlink">
    <title>Valencia_Part_estàtic</title>
    <defs>
        <rect id="path-1" x="0" y="0" width="812" height="660"></rect>
    </defs>
    <g id="Circuits-📍" stroke="none" stroke-width="1" fill="none" fill-rule="evenodd">
        <g id="Valencia_Part_estàtic">
            <mask id="mask-2" fill="white">
                <use xlink:href="#path-1"></use>
            </mask>
            <g id="Mask"></g>
            <path d="M716.750859,209.192597 C698.046859,203.317597 688.091859,213.711597 684.320859,217.778597 L684.019859,218.079597 C680.700859,221.544597 640.276859,264.624597 637.562859,267.335597 C635.299859,269.444597 627.907859,277.427597 628.059859,292.189597 C628.059859,293.394597 628.059859,294.449597 628.210859,295.654597 C629.416859,310.114597 633.488859,373.831597 633.640859,374.433597 L633.640859,374.584597 C633.640859,377.596597 633.036859,386.935597 623.232859,387.387597 C604.679859,388.140597 566.066859,387.237597 565.763859,387.237597 C564.859859,387.237597 547.965859,387.237597 544.495859,375.036597 C543.440859,371.270597 542.836859,367.353597 542.534859,363.287597 C542.234859,358.316597 543.591859,353.496597 546.456859,349.579597 C549.624859,345.211597 610.863859,255.586597 613.428859,251.820597 C617.048859,246.247597 618.858859,239.769597 618.858859,233.142597 C618.858859,227.719597 617.198859,222.296597 614.182859,217.778597 C605.132859,204.372597 597.138859,199.853597 582.356859,200.003597 C571.193859,200.154597 415.682859,200.756597 412.062859,200.756597 C402.710859,200.907597 393.509859,202.865597 385.213859,206.782597 C374.353859,212.355597 306.477859,244.589597 305.873859,244.891597 L305.571859,245.042597 L305.270859,245.192597 C296.521859,250.314597 281.890859,266.582597 289.583859,292.490597 C295.767859,313.579597 314.923859,318.097597 324.577859,317.645597 L385.967859,317.645597 C389.889859,317.947597 406.028859,318.248597 423.525859,300.473597 C439.665859,284.054597 450.675859,274.113597 450.675859,273.962597 L450.978859,273.662597 L451.278859,273.360597 C451.278859,273.360597 458.670859,265.076597 468.625859,264.774597 C468.625859,264.774597 502.564859,264.171597 506.485859,264.021597 C509.049859,264.171597 519.759859,265.829597 520.211859,275.920597 L520.211859,276.825597 C520.361859,287.218597 514.630859,289.929597 513.574859,290.381597 L513.273859,290.532597 L512.819859,290.682597 L355.649859,363.135597 L355.046859,363.437597 C353.989859,364.040597 348.258859,367.052597 341.470859,361.027597 L338.454859,358.316597 C323.973859,344.758597 290.186859,313.127597 226.533859,314.482597 C197.120859,315.085597 150.210859,329.997597 115.216859,369.613597 C100.736859,386.032597 88.9718589,404.710597 80.5248589,425.045597 C80.0718589,426.250597 76.3018589,437.396597 82.6368589,447.187597 C87.1618589,454.418597 95.4578589,458.635597 107.222859,459.690597 L107.524859,459.690597 L644.802859,459.991597 C656.868859,460.293597 682.511859,452.912597 692.013859,422.334597 L692.164859,422.032597 L732.136859,241.577597 C734.247859,232.690597 733.644859,214.313597 716.750859,209.192597" id="Valencia_Part_dinàmic" stroke="#53575A" stroke-width="13" mask="url(#mask-2)"></path>
        </g>
    </g>
</svg>